<?xml version="1.0" encoding="UTF-8"?>
<!DOCTYPE svg PUBLIC "-//W3C//DTD SVG 1.1//EN" "http://www.w3.org/Graphics/SVG/1.1/DTD/svg11.dtd">
<!-- Creator: CorelDRAW X7 -->
<svg xmlns="http://www.w3.org/2000/svg" xml:space="preserve" width="21.6746mm" height="21.6746mm" version="1.1" style="shape-rendering:geometricPrecision; text-rendering:geometricPrecision; image-rendering:optimizeQuality; fill-rule:evenodd; clip-rule:evenodd"
viewBox="0 0 458 458"
 xmlns:xlink="http://www.w3.org/1999/xlink">
 <defs>
  <style type="text/css">
   <![CDATA[
    .fil0 {fill:none}
    .fil1 {fill:white}
   ]]>
  </style>
 </defs>
 <g id="Layer_x0020_1">
  <metadata id="CorelCorpID_0Corel-Layer"/>
  <rect class="fil0" width="458" height="458"/>
  <g id="_2115748467584">
   <path class="fil1" d="M414 125l-16 0 0 105c0,20 -8,38 -21,51l0 0c-13,14 -32,22 -52,22l-235 0 0 20c0,23 19,42 42,42l260 0 64 61 0 -102 0 -1 0 -1 0 -155c0,-23 -19,-42 -42,-42zm-47 0l-235 0c-23,0 -42,19 -42,42l0 105 235 0c23,0 42,-19 42,-42l0 -105z"/>
   <path class="fil1" d="M43 32l282 0c23,0 42,19 42,42l0 156c0,23 -19,42 -42,42l-259 0 -65 61 0 -102 0 -1 0 -1 0 -155c0,-23 19,-42 42,-42z"/>
  </g>
 </g>
</svg>
